<?xml version="1.0" standalone="no"?>
<!DOCTYPE svg PUBLIC "-//W3C//DTD SVG 20010904//EN"
 "http://www.w3.org/TR/2001/REC-SVG-20010904/DTD/svg10.dtd">
<svg version="1.0" xmlns="http://www.w3.org/2000/svg"
 width="1080.000000pt" height="1080.000000pt" viewBox="0 0 1080.000000 1080.000000"
 preserveAspectRatio="xMidYMid meet">

<g transform="translate(0.000000,1080.000000) scale(0.100000,-0.100000)"
fill="#000000" stroke="none">
<path d="M7830 5700 c0 -5 11 -10 25 -10 24 0 25 -2 25 -70 0 -40 4 -70 10
-70 6 0 10 30 10 70 0 68 1 70 25 70 14 0 25 5 25 10 0 6 -27 10 -60 10 -33 0
-60 -4 -60 -10z"/>
<path d="M7982 5628 c1 -82 1 -82 7 -23 l6 60 28 -48 c16 -27 31 -46 34 -43 4
3 17 23 29 43 l23 38 1 -52 c0 -29 5 -53 10 -53 6 0 10 33 10 80 0 44 -4 80
-8 80 -5 0 -19 -23 -32 -51 -13 -28 -27 -52 -32 -55 -4 -3 -19 18 -32 45 -39
76 -46 73 -44 -21z"/>
<path d="M5770 5650 c-11 -11 -20 -29 -20 -40 0 -27 35 -60 63 -60 36 0 67 27
67 60 0 54 -71 79 -110 40z"/>
<path d="M5982 5638 c-27 -27 -7 -78 29 -78 21 0 49 26 49 45 0 35 -53 58 -78
33z"/>
<path d="M7400 5375 l0 -265 30 0 30 0 0 265 0 265 -30 0 -30 0 0 -265z"/>
<path d="M3890 5360 l0 -250 55 0 54 0 3 142 3 142 68 -112 c62 -101 71 -112
98 -112 26 0 35 10 96 115 37 63 71 115 75 115 4 0 8 -65 8 -145 l0 -145 50 0
50 0 0 250 0 250 -47 0 -48 -1 -90 -154 c-49 -84 -93 -151 -96 -149 -4 2 -46
71 -95 154 l-89 150 -47 0 -48 0 0 -250z"/>
<path d="M4610 5474 c-50 -21 -70 -51 -70 -106 0 -39 5 -50 30 -71 16 -14 49
-28 72 -32 96 -14 108 -18 120 -32 10 -13 8 -19 -11 -34 -29 -24 -71 -24 -138
-1 l-51 18 -16 -34 c-9 -18 -14 -37 -11 -41 16 -27 177 -40 247 -21 82 23 114
112 61 170 -23 24 -43 33 -113 47 -72 15 -85 21 -88 39 -2 16 5 25 28 34 31
13 59 10 135 -15 17 -5 23 0 33 28 16 46 17 45 -25 56 -55 15 -162 13 -203 -5z"/>
<path d="M5020 5474 c-76 -33 -112 -89 -112 -174 0 -118 79 -190 207 -190 126
0 205 73 205 190 0 53 -23 112 -57 142 -51 47 -172 63 -243 32z m123 -73 c45
-17 67 -51 67 -102 0 -79 -65 -124 -135 -95 -79 33 -82 150 -5 188 41 21 41
21 73 9z"/>
<path d="M5440 5474 c-50 -21 -70 -51 -70 -106 0 -39 5 -50 30 -71 16 -14 49
-28 72 -32 96 -14 108 -18 120 -32 10 -13 8 -19 -11 -34 -29 -24 -71 -24 -138
-1 l-51 18 -16 -34 c-9 -18 -14 -37 -11 -41 16 -27 177 -40 247 -21 82 23 114
112 61 170 -23 24 -43 33 -113 47 -72 15 -85 21 -88 39 -2 16 5 25 28 34 31
13 59 10 135 -15 17 -5 23 0 33 28 16 46 17 45 -25 56 -55 15 -162 13 -203 -5z"/>
<path d="M5760 5300 l0 -190 55 0 55 0 0 190 0 190 -55 0 -55 0 0 -190z"/>
<path d="M5980 5277 c0 -200 -1 -215 -20 -232 -15 -13 -30 -16 -59 -12 -33 4
-41 2 -46 -14 -4 -10 -4 -23 0 -29 10 -17 76 -23 116 -11 68 20 74 42 77 294
l3 217 -35 0 -36 0 0 -213z"/>
<path d="M6172 5353 c4 -154 15 -191 69 -218 55 -29 118 -30 172 -2 l47 24 0
-23 c0 -21 5 -24 35 -24 l35 0 0 190 0 190 -34 0 -34 0 -4 -131 -3 -131 -33
-29 c-46 -41 -111 -41 -153 0 l-29 29 0 131 0 131 -36 0 -36 0 4 -137z"/>
<path d="M6650 5300 l0 -190 30 0 30 0 0 110 c0 160 27 210 115 210 84 0 105
-42 105 -212 l0 -108 30 0 30 0 0 110 c0 160 27 210 115 210 84 0 105 -42 105
-212 l0 -108 30 0 30 0 0 130 c0 144 -10 183 -54 218 -56 44 -168 37 -218 -13
l-25 -25 -23 25 c-46 49 -138 55 -207 15 l-33 -19 0 24 c0 21 -5 25 -30 25
l-30 0 0 -190z"/>
<path d="M7665 5484 c-33 -8 -95 -37 -95 -44 0 -3 6 -14 13 -24 11 -16 15 -16
49 -1 72 30 156 15 177 -32 22 -48 17 -53 -61 -53 -93 0 -142 -14 -168 -47
-26 -34 -26 -92 1 -126 39 -51 158 -59 213 -16 l26 20 0 -25 c0 -22 4 -26 30
-26 l30 0 0 140 c0 158 -9 188 -61 216 -32 16 -119 27 -154 18z m155 -230 c0
-36 -16 -61 -50 -79 -89 -46 -193 22 -130 85 17 17 33 20 100 20 79 0 80 0 80
-26z"/>
</g>
</svg>
